<svg width="248" height="78" viewBox="0 0 248 78" fill="none" xmlns="http://www.w3.org/2000/svg">
<rect x="140.399" y="0.49408" width="107.027" height="76.8902" rx="8.57314" fill="#0A3A7A"/>
<circle cx="230.417" cy="48.6363" r="5.14388" fill="#00AEF0"/>
<path d="M22.8945 40.7714C23.3609 41.7042 23.5941 42.841 23.5941 44.1818C23.5941 45.8141 23.2589 47.2424 22.5885 48.4667C21.9472 49.6618 21.0727 50.6674 19.9651 51.4836C18.8866 52.2706 17.6478 52.8681 16.2486 53.2762C14.8495 53.6843 13.3921 53.8883 11.8763 53.8883C10.5647 53.8883 9.39871 53.7572 8.3785 53.4948C7.38745 53.2325 6.45469 52.8827 5.58023 52.4455C4.70577 51.9791 3.84588 51.4253 3.00057 50.784C2.15526 50.1427 1.2225 49.4286 0.202301 48.6416C0.348044 48.4375 0.552085 48.0877 0.814423 47.5922C1.07676 47.0675 1.38282 46.5574 1.73261 46.0619C2.11154 45.5664 2.51962 45.1437 2.95685 44.7939C3.42323 44.415 3.91876 44.2693 4.44343 44.3567C4.67662 44.3859 5.05555 44.5899 5.58023 44.9688C6.13406 45.3478 6.77533 45.7704 7.50404 46.2368C8.23276 46.674 9.01977 47.0821 9.86509 47.461C10.7395 47.8108 11.6286 47.9857 12.5322 47.9857C13.6398 47.9857 14.5872 47.738 15.3742 47.2424C16.1612 46.7178 16.5547 45.9307 16.5547 44.8814C16.5547 44.1527 16.2341 43.5405 15.5928 43.045C14.9515 42.5203 14.1937 42.0685 13.3192 41.6896C12.4447 41.3107 11.5411 40.9755 10.6084 40.684C9.70477 40.3925 8.97605 40.1156 8.42223 39.8532C8.36393 39.8241 8.01414 39.7075 7.37287 39.5035C6.76075 39.2703 6.07576 38.8622 5.31789 38.2792C4.58918 37.6962 3.91876 36.8946 3.30663 35.8744C2.72366 34.8542 2.43217 33.5134 2.43217 31.8519C2.43217 30.686 2.66536 29.5638 3.13174 28.4853C3.59812 27.3776 4.28311 26.4157 5.18672 25.5995C6.11948 24.7542 7.28543 24.0838 8.68456 23.5883C10.0837 23.0928 11.716 22.845 13.5815 22.845C13.6398 22.845 13.6981 22.8596 13.7564 22.8887C13.8147 22.8887 13.873 22.8887 13.9313 22.8887V22.845C13.9605 22.845 14.2811 22.8741 14.8932 22.9324C15.5054 22.9616 16.2632 23.0928 17.1668 23.3259C18.0704 23.5591 19.0469 23.9381 20.0963 24.4627C21.1748 24.9583 22.195 25.6578 23.1569 26.5614L21.0145 29.4909C20.7521 29.8115 20.5189 30.0739 20.3149 30.2779C20.1108 30.4819 19.8922 30.584 19.659 30.584C19.3967 30.584 19.1344 30.5257 18.872 30.4091C18.6097 30.2633 18.1725 30.001 17.5603 29.6221C17.0648 29.3597 16.5693 29.1557 16.0738 29.0099C15.6074 28.835 15.1701 28.7039 14.7621 28.6164C14.2957 28.4998 13.8585 28.4415 13.4504 28.4415C12.9257 28.4415 12.4156 28.4998 11.9201 28.6164C11.4537 28.7039 11.031 28.8496 10.6521 29.0537C10.3023 29.2577 10.0108 29.5346 9.77764 29.8844C9.5736 30.2342 9.47158 30.6568 9.47158 31.1524C9.47158 31.7936 9.6319 32.3183 9.95253 32.7264C10.3023 33.1345 10.7395 33.4843 11.2642 33.7757C11.7889 34.0381 12.3719 34.2713 13.0131 34.4753C13.6544 34.6794 14.2811 34.898 14.8932 35.1312C16.03 35.5975 17.0065 36.0056 17.8227 36.3554C18.6388 36.7052 19.353 37.0841 19.9651 37.4922C20.5772 37.8711 21.1165 38.3229 21.5829 38.8476C22.0492 39.3431 22.4865 39.9844 22.8945 40.7714ZM40.837 53.5823L40.4435 53.7134C40.4144 53.7134 40.2541 53.728 39.9626 53.7572C39.6711 53.8155 39.2776 53.8446 38.782 53.8446C38.0825 53.8446 37.1934 53.7572 36.1149 53.5823C35.0656 53.4365 34.0454 53.0722 33.0543 52.4892C32.0924 51.9062 31.2617 51.0609 30.5621 49.9533C29.8626 48.8456 29.5128 47.3444 29.5128 45.4498V36.8801H27.1954V31.677H29.6439V25.993H32.5297C34.7158 25.993 35.8089 27.057 35.8089 29.1848V31.677H40.531V36.8801H35.8089V44.7939C35.8089 45.1729 35.8526 45.5664 35.94 45.9745C36.0275 46.3534 36.2024 46.7178 36.4647 47.0675C36.7271 47.3882 37.0914 47.6651 37.5578 47.8983C38.0242 48.1023 38.6363 48.2043 39.3942 48.2043C39.6274 48.2043 39.846 48.1752 40.05 48.1169C40.2541 48.0586 40.5164 48.0003 40.837 47.942V53.5823ZM46.0138 37.0987V36.0493C46.0138 34.9708 46.3344 34.1255 46.9757 33.5134C47.6461 32.9013 48.4185 32.4495 49.293 32.158C50.1674 31.8374 51.0419 31.6479 51.9164 31.5896C52.82 31.5021 53.505 31.4584 53.9713 31.4584C60.1509 31.4584 63.2406 34.315 63.2406 40.0281V47.7671V53.3636H60.8359C59.9323 53.3636 59.2181 53.1596 58.6934 52.7515C58.1688 52.3143 57.8773 51.7167 57.819 50.9589C57.7315 51.1046 57.6004 51.2649 57.4255 51.4398C57.2797 51.5856 57.1194 51.7459 56.9445 51.9208C56.4781 52.358 55.8223 52.7807 54.977 53.1888C54.1608 53.5968 53.1115 53.8009 51.8289 53.8009C50.9253 53.8009 50.0217 53.6551 49.1181 53.3636C48.2436 53.0722 47.4566 52.6495 46.7571 52.0957C46.0575 51.5127 45.4891 50.7986 45.0519 49.9533C44.6438 49.1079 44.4397 48.1315 44.4397 47.0238C44.4397 45.3623 44.9207 44.0361 45.8826 43.045C46.8445 42.054 47.9959 41.3107 49.3367 40.8151C50.6775 40.3196 52.0621 39.999 53.4904 39.8532C54.9478 39.7075 56.1575 39.6346 57.1194 39.6346H57.3817C57.3526 38.3229 57.0757 37.4193 56.551 36.9238C56.0555 36.3991 55.181 36.1368 53.9276 36.1368C53.7236 36.1368 53.4758 36.1514 53.1843 36.1805C52.922 36.2097 52.6597 36.268 52.3973 36.3554C52.135 36.4137 51.9164 36.5157 51.7415 36.6615C51.5666 36.7781 51.4791 36.9238 51.4791 37.0987H46.0138ZM53.0969 49.0788C53.7382 49.0788 54.3211 48.933 54.8458 48.6416C55.3996 48.3501 55.866 47.9711 56.2449 47.5048C56.653 47.0092 56.9591 46.4554 57.1631 45.8433C57.3963 45.2312 57.5129 44.619 57.5129 44.0069V43.8758H56.9008C56.1429 43.8758 55.3705 43.9195 54.5835 44.0069C53.8256 44.0652 53.126 44.211 52.4848 44.4442C51.8726 44.6482 51.3625 44.9397 50.9545 45.3186C50.5464 45.6975 50.3423 46.1931 50.3423 46.8052C50.3423 47.359 50.5464 47.8837 50.9545 48.3792C51.3625 48.8456 52.0767 49.0788 53.0969 49.0788ZM81.8871 53.5823L81.4936 53.7134C81.4645 53.7134 81.3041 53.728 81.0127 53.7572C80.7212 53.8155 80.3277 53.8446 79.8321 53.8446C79.1326 53.8446 78.2435 53.7572 77.165 53.5823C76.1157 53.4365 75.0955 53.0722 74.1044 52.4892C73.1425 51.9062 72.3118 51.0609 71.6122 49.9533C70.9126 48.8456 70.5629 47.3444 70.5629 45.4498V36.8801H68.2455V31.677H70.694V25.993H73.5797C75.7659 25.993 76.859 27.057 76.859 29.1848V31.677H81.5811V36.8801H76.859V44.7939C76.859 45.1729 76.9027 45.5664 76.9901 45.9745C77.0776 46.3534 77.2525 46.7178 77.5148 47.0675C77.7772 47.3882 78.1415 47.6651 78.6079 47.8983C79.0743 48.1023 79.6864 48.2043 80.4443 48.2043C80.6774 48.2043 80.8961 48.1752 81.1001 48.1169C81.3041 48.0586 81.5665 48.0003 81.8871 47.942V53.5823ZM94.8465 53.7572C92.2815 53.7572 90.3285 53.0867 88.9877 51.7459C87.676 50.3759 87.0201 48.2626 87.0201 45.4061V31.8082H90.037C92.1649 31.8082 93.2288 32.8867 93.2288 35.0437V44.4442C93.2288 45.785 93.4474 46.7178 93.8846 47.2424C94.3219 47.7671 95.036 48.0294 96.0271 48.0294C97.5137 48.0294 98.7816 47.4756 99.831 46.368C100.88 45.2312 101.405 43.6571 101.405 41.6459V31.8082H107.395V53.3636H104.772C104.101 53.3636 103.562 53.2908 103.154 53.145C102.775 52.9701 102.469 52.7807 102.236 52.5766C102.032 52.3726 101.886 52.1686 101.799 51.9645C101.711 51.7313 101.653 51.5564 101.624 51.4398C101.39 51.6147 101.099 51.8333 100.749 52.0957C100.399 52.358 99.9476 52.6204 99.3937 52.8827C98.8691 53.1159 98.2278 53.3199 97.4699 53.4948C96.7412 53.6697 95.8668 53.7572 94.8465 53.7572ZM122.79 40.1593C123.606 40.4508 124.437 40.786 125.282 41.1649C126.157 41.5147 126.944 41.9665 127.643 42.5203C128.343 43.045 128.911 43.6863 129.348 44.4442C129.815 45.202 130.048 46.1202 130.048 47.1987C130.048 48.1606 129.844 49.0496 129.436 49.8658C129.028 50.682 128.459 51.3961 127.731 52.0082C127.002 52.5912 126.128 53.043 125.107 53.3636C124.116 53.6843 123.009 53.8446 121.784 53.8446C120.327 53.8446 119.03 53.6551 117.893 53.2762C116.785 52.8681 115.853 52.4309 115.095 51.9645C114.337 51.469 113.768 51.0172 113.39 50.6091C113.011 50.201 112.821 49.997 112.821 49.997L112.734 49.9095L115.488 46.1056L115.619 46.2805C115.619 46.3097 115.78 46.4846 116.1 46.8052C116.421 47.1258 116.858 47.4756 117.412 47.8545C117.966 48.2335 118.607 48.5833 119.336 48.9039C120.094 49.1954 120.91 49.3411 121.784 49.3411C122.601 49.3411 123.227 49.1808 123.664 48.8602C124.131 48.5395 124.364 48.0877 124.364 47.5048C124.364 47.0384 124.087 46.6449 123.533 46.3242C123.009 45.9745 122.324 45.6247 121.478 45.2749C120.662 44.9251 119.773 44.5607 118.811 44.1818C117.878 43.7737 116.989 43.2928 116.144 42.739C115.328 42.156 114.643 41.471 114.089 40.684C113.564 39.8678 113.302 38.8913 113.302 37.7545C113.302 36.6177 113.521 35.6558 113.958 34.8688C114.424 34.0818 115.022 33.4405 115.751 32.945C116.508 32.4203 117.354 32.0414 118.287 31.8082C119.219 31.5459 120.167 31.4001 121.129 31.371H121.347H121.872C123.213 31.4293 124.349 31.6333 125.282 31.9831C126.244 32.3037 127.017 32.7118 127.6 33.2073C128.182 33.6737 128.605 34.1838 128.867 34.7376C129.13 35.2915 129.261 35.8016 129.261 36.268V38.7602H126.332C126.244 38.7602 126.113 38.7602 125.938 38.7602C125.792 38.731 125.632 38.6727 125.457 38.5853C125.282 38.4978 125.107 38.3667 124.932 38.1918C124.787 38.0169 124.67 37.7691 124.583 37.4485L124.539 37.2736C124.393 36.7781 124 36.4283 123.358 36.2242C122.717 35.991 122.061 35.8744 121.391 35.8744C120.604 35.8744 119.977 36.0348 119.511 36.3554C119.074 36.6469 118.855 37.0404 118.855 37.5359C118.855 38.1189 119.234 38.5998 119.992 38.9788C120.779 39.3577 121.711 39.7512 122.79 40.1593ZM174.764 37.9294C175.871 38.5707 176.731 39.4743 177.343 40.6403C177.985 41.8062 178.305 43.1033 178.305 44.5316C178.305 45.8724 178.057 47.0967 177.562 48.2043C177.066 49.2828 176.367 50.201 175.463 50.9589C174.56 51.7167 173.467 52.3143 172.184 52.7515C170.901 53.1596 169.459 53.3636 167.855 53.3636H160.423H157.406V26.3428C157.406 25.4975 157.697 24.7688 158.28 24.1567C158.892 23.5446 159.621 23.2239 160.466 23.1948H161.21H167.724C169.153 23.1948 170.45 23.3842 171.616 23.7632C172.782 24.113 173.773 24.6376 174.589 25.3372C175.405 26.0076 176.032 26.8238 176.469 27.7857C176.906 28.7476 177.125 29.8261 177.125 31.0212C177.125 31.8082 177.037 32.5078 176.862 33.1199C176.687 33.732 176.469 34.2858 176.207 34.7814C175.973 35.2477 175.711 35.6558 175.42 36.0056C175.128 36.3263 174.866 36.5886 174.632 36.7926L173.845 37.4485L174.764 37.9294ZM163.221 35.3935H167.812C168.453 35.3935 168.992 35.2915 169.429 35.0874C169.867 34.8542 170.216 34.5628 170.479 34.213C170.77 33.8632 170.974 33.4697 171.091 33.0324C171.208 32.5952 171.266 32.1726 171.266 31.7645C171.266 30.5985 170.945 29.7095 170.304 29.0974C169.692 28.4561 168.832 28.1355 167.724 28.1355H165.101C163.847 28.2229 163.221 28.9516 163.221 30.3216V35.3935ZM168.293 48.2481C169.546 48.2481 170.537 47.8983 171.266 47.1987C171.995 46.47 172.359 45.4498 172.359 44.1381C172.359 42.8556 171.98 41.8499 171.222 41.1212C170.493 40.3925 169.517 40.0281 168.293 40.0281H164.839C163.76 40.2322 163.221 40.9609 163.221 42.2143V48.2481H168.293ZM187.854 41.6459C187.796 41.9082 187.737 42.2143 187.679 42.5641C187.621 42.7098 187.592 42.9284 187.592 43.2199C187.592 43.4822 187.577 43.8029 187.548 44.1818C187.519 44.5899 187.504 45.0709 187.504 45.6247C187.504 46.1785 187.49 46.8198 187.46 47.5485V53.3636H181.558V31.8082H184.269C185.231 31.8082 186.003 32.0268 186.586 32.4641C187.169 32.843 187.46 33.528 187.46 34.519V35.3935C188.189 34.0235 189.151 33.0616 190.346 32.5078C191.57 31.9539 192.94 31.7208 194.456 31.8082H194.85L194.456 38.1043C193.698 37.842 192.984 37.7108 192.314 37.7108C191.148 37.7108 190.2 38.0606 189.472 38.7602C189.122 39.0808 188.801 39.4889 188.51 39.9844C188.218 40.4508 188 41.0046 187.854 41.6459ZM209.48 31.4147C211.462 31.4147 213.167 31.7645 214.596 32.4641C216.053 33.1345 217.248 34.0089 218.181 35.0874C219.143 36.1659 219.842 37.3756 220.28 38.7164C220.746 40.0281 220.979 41.3252 220.979 42.6078C220.979 44.2401 220.702 45.7413 220.148 47.1113C219.595 48.4812 218.808 49.6763 217.787 50.6965C216.796 51.6876 215.587 52.46 214.158 53.0139C212.759 53.5677 211.2 53.8446 209.48 53.8446C207.935 53.8446 206.478 53.5823 205.108 53.0576C203.767 52.5329 202.586 51.7896 201.566 50.8277C200.575 49.8367 199.788 48.6561 199.205 47.2861C198.622 45.887 198.331 44.3276 198.331 42.6078C198.331 41.0921 198.593 39.6492 199.118 38.2792C199.672 36.9092 200.429 35.7287 201.391 34.7376C202.382 33.7174 203.563 32.9159 204.933 32.3329C206.303 31.7208 207.819 31.4147 209.48 31.4147ZM209.48 48.6853C210.355 48.6853 211.127 48.5395 211.797 48.2481C212.468 47.9274 213.022 47.4902 213.459 46.9364C213.896 46.3825 214.231 45.7413 214.464 45.0126C214.698 44.2547 214.814 43.4531 214.814 42.6078C214.814 41.7916 214.698 41.0338 214.464 40.3342C214.231 39.6346 213.896 39.0225 213.459 38.4978C213.022 37.9731 212.468 37.5651 211.797 37.2736C211.127 36.9821 210.355 36.8364 209.48 36.8364C207.993 36.8364 206.755 37.3756 205.764 38.4541C204.802 39.5035 204.321 40.888 204.321 42.6078C204.321 43.5114 204.452 44.3421 204.714 45.1C204.977 45.8287 205.341 46.47 205.807 47.0238C206.274 47.5485 206.813 47.9566 207.425 48.2481C208.066 48.5395 208.751 48.6853 209.48 48.6853Z" fill="#EEEEEE"/>
</svg>
